<svg xmlns="http://www.w3.org/2000/svg" xmlns:xlink="http://www.w3.org/1999/xlink" width="640" height="400" data-background-color="#ffffff" preserveAspectRatio="xMidYMid meet" viewBox="0 0 640 400"><rect id="background" width="640" height="400" x="0" y="0" fill="#fff" data-fill-palette-color="background" opacity="1"/><g id="tight-bounds" transform="matrix(1,0,0,1,122.24000000000001,76.4)"><svg width="395.52" height="247.2" viewBox="0 0 395.52 247.2"><g><svg/></g><g><svg width="395.52" height="247.2" viewBox="0 0 395.52 247.2"><g transform="matrix(1,0,0,1,75.54432,96.37358455966262)"><svg width="244.431" height="54.453" viewBox="0 0 244.431 54.453"><g><svg width="244.431" height="54.453" viewBox="0 0 244.431 54.453"><g><svg width="244.431" height="54.453" viewBox="0 0 244.431 54.453"><g><svg width="244.431" height="54.453" viewBox="0 0 244.431 54.453"><g><svg id="textblock" width="244.431" height="54.453" viewBox="0 0 244.431 54.453"><g><svg width="244.431" height="54.453" viewBox="0 0 244.431 54.453"><g transform="matrix(1,0,0,1,0,0)"><svg width="244.431" height="54.453" data-palette-color="#336a86" viewBox="3 -34.4 201.54 44.9"><path id="text-0" fill="#336a86" d="M38.05-27Q42.55-27 44.8-24.43 47.05-21.85 47.05-17.1L47.05-17.1 47.05 0 37.1 0 37.1-15.9Q37.1-17.6 36.27-18.63 35.45-19.65 33.95-19.65L33.95-19.65Q32.2-19.65 31.1-18.45 30-17.25 30-15.5L30-15.5 30 0 20.05 0 20.05-15.9Q20.05-17.6 19.23-18.63 18.4-19.65 16.9-19.65L16.9-19.65Q15.15-19.65 14.05-18.45 12.95-17.25 12.95-15.5L12.95-15.5 12.95 0 3 0 3-26.4 11.15-26.4 11.8-22.45Q13.3-24.55 15.78-25.78 18.25-27 21-27L21-27Q26.95-27 29-22.45L29-22.45Q30.55-24.55 32.98-25.78 35.4-27 38.05-27L38.05-27ZM71.15-0.8Q69.1 4.75 66.12 7.63 63.15 10.5 57.8 10.5L57.8 10.5Q54.55 10.5 52.05 9.6L52.05 9.6 52.05 3.65 56.05 3.65Q59.8 3.65 60.5 0L60.5 0 50-26.4 60.7-26.4 65.75-8.85 66.1-8.85 70.75-26.4 80.55-26.4 71.15-0.8ZM103.55-34.4Q106.75-34.4 109.25-32.93 111.75-31.45 113.15-28.88 114.55-26.3 114.55-23.1L114.55-23.1 114.55-22.45Q114.55-19.25 113.15-16.65 111.75-14.05 109.25-12.58 106.75-11.1 103.55-11.1L103.55-11.1 95.3-11.1 95.3 0 84.25 0 84.25-34.4 103.55-34.4ZM95.3-26.25L95.3-19.15 99.84-19.15Q101.59-19.15 102.47-20.05 103.34-20.95 103.34-22.5L103.34-22.5 103.34-22.9Q103.34-24.5 102.47-25.38 101.59-26.25 99.84-26.25L99.84-26.25 95.3-26.25ZM135.69-27.05Q136.84-27.05 137.74-26.78 138.64-26.5 138.64-26.45L138.64-26.45 138.64-18.1 135.44-18.1Q132.34-18.1 130.97-16.5 129.59-14.9 129.59-11.75L129.59-11.75 129.59 0 119.64 0 119.64-26.4 127.79-26.4 128.44-22.4Q129.34-24.7 131.29-25.88 133.24-27.05 135.69-27.05L135.69-27.05ZM156.29-27Q163.54-27 167.37-23.6 171.19-20.2 171.19-13.2L171.19-13.2 171.19-11.5 151.39-11.5Q151.39-8.65 152.67-7.2 153.94-5.75 156.69-5.75L156.69-5.75Q159.19-5.75 160.37-6.8 161.54-7.85 161.54-9.6L161.54-9.6 171.19-9.6Q171.19-4.8 167.54-2.1 163.89 0.6 156.89 0.6L156.89 0.6Q149.54 0.6 145.49-2.83 141.44-6.25 141.44-13.2L141.44-13.2Q141.44-20 145.39-23.5 149.34-27 156.29-27L156.29-27ZM156.69-20.65Q151.99-20.65 151.44-16.2L151.44-16.2 161.14-16.2Q161.14-18.25 159.97-19.45 158.79-20.65 156.69-20.65L156.69-20.65ZM193.39-27Q198.74-27 201.64-23.5 204.54-20 204.54-13.15L204.54-13.15Q204.54-6.35 201.64-2.88 198.74 0.6 193.39 0.6L193.39 0.6Q188.79 0.6 185.99-2.4L185.99-2.4 185.99 9.85 176.04 9.85 176.04-26.4 184.14-26.4 184.99-22.65Q187.89-27 193.39-27L193.39-27ZM190.29-19.65Q188.09-19.65 186.99-18.1 185.89-16.55 185.89-14.05L185.89-14.05 185.89-12.4Q185.89-9.9 186.99-8.33 188.09-6.75 190.29-6.75L190.29-6.75Q194.59-6.75 194.59-11.9L194.59-11.9 194.59-14.55Q194.59-19.65 190.29-19.65L190.29-19.65Z" class="undefined-text-0" data-fill-palette-color="primary" opacity="1" transform="matrix(1,0,0,1,0,0)"/></svg></g></svg></g></svg></g></svg></g></svg></g></svg></g></svg></g><path fill="#336a86" stroke="transparent" d="M201.031 90.374L201.031 30.65 386.93 30.65 386.93 216.55 201.031 216.55 201.031 156.826 205.941 156.826 205.941 211.639 382.019 211.639 382.019 35.561 205.941 35.561 205.941 90.374Z" data-fill-palette-color="primary"/></svg></g></svg><rect width="395.52" height="247.2" fill="none" stroke="none" visibility="hidden"/></g></svg>